<?xml version="1.0" encoding="UTF-8" standalone="no"?>
<!DOCTYPE svg PUBLIC "-//W3C//DTD SVG 1.1//EN"
 "http://www.w3.org/Graphics/SVG/1.1/DTD/svg11.dtd">
<!-- Generated by graphviz version 2.40.1 (20161225.0304)
 -->
<!-- Title: snakemake_dag Pages: 1 -->
<svg width="168pt" height="476pt"
 viewBox="0.00 0.00 168.00 476.00" xmlns="http://www.w3.org/2000/svg" xmlns:xlink="http://www.w3.org/1999/xlink">
<g id="graph0" class="graph" transform="scale(1 1) rotate(0) translate(4 472)">
<title>snakemake_dag</title>
<polygon fill="#ffffff" stroke="transparent" points="-4,4 -4,-472 164,-472 164,4 -4,4"/>
<!-- 0 -->
<g id="node1" class="node">
<title>0</title>
<path fill="none" stroke="#56d87b" stroke-width="2" stroke-dasharray="5,2" d="M96.5,-36C96.5,-36 66.5,-36 66.5,-36 60.5,-36 54.5,-30 54.5,-24 54.5,-24 54.5,-12 54.5,-12 54.5,-6 60.5,0 66.5,0 66.5,0 96.5,0 96.5,0 102.5,0 108.5,-6 108.5,-12 108.5,-12 108.5,-24 108.5,-24 108.5,-30 102.5,-36 96.5,-36"/>
<text text-anchor="middle" x="81.5" y="-15.5" font-family="sans" font-size="10.00" fill="#000000">all</text>
</g>
<!-- 1 -->
<g id="node2" class="node">
<title>1</title>
<path fill="none" stroke="#56a2d8" stroke-width="2" stroke-dasharray="5,2" d="M96.5,-108C96.5,-108 66.5,-108 66.5,-108 60.5,-108 54.5,-102 54.5,-96 54.5,-96 54.5,-84 54.5,-84 54.5,-78 60.5,-72 66.5,-72 66.5,-72 96.5,-72 96.5,-72 102.5,-72 108.5,-78 108.5,-84 108.5,-84 108.5,-96 108.5,-96 108.5,-102 102.5,-108 96.5,-108"/>
<text text-anchor="middle" x="81.5" y="-87.5" font-family="sans" font-size="10.00" fill="#000000">plots</text>
</g>
<!-- 1&#45;&gt;0 -->
<g id="edge1" class="edge">
<title>1&#45;&gt;0</title>
<path fill="none" stroke="#c0c0c0" stroke-width="2" d="M81.5,-71.8314C81.5,-64.131 81.5,-54.9743 81.5,-46.4166"/>
<polygon fill="#c0c0c0" stroke="#c0c0c0" stroke-width="2" points="85.0001,-46.4132 81.5,-36.4133 78.0001,-46.4133 85.0001,-46.4132"/>
</g>
<!-- 2 -->
<g id="node3" class="node">
<title>2</title>
<path fill="none" stroke="#56d8c9" stroke-width="2" stroke-dasharray="5,2" d="M114,-180C114,-180 49,-180 49,-180 43,-180 37,-174 37,-168 37,-168 37,-156 37,-156 37,-150 43,-144 49,-144 49,-144 114,-144 114,-144 120,-144 126,-150 126,-156 126,-156 126,-168 126,-168 126,-174 120,-180 114,-180"/>
<text text-anchor="middle" x="81.5" y="-165" font-family="sans" font-size="10.00" fill="#000000">mergeVcfs</text>
<text text-anchor="middle" x="81.5" y="-154" font-family="sans" font-size="10.00" fill="#000000">results: results</text>
</g>
<!-- 2&#45;&gt;1 -->
<g id="edge2" class="edge">
<title>2&#45;&gt;1</title>
<path fill="none" stroke="#c0c0c0" stroke-width="2" d="M81.5,-143.8314C81.5,-136.131 81.5,-126.9743 81.5,-118.4166"/>
<polygon fill="#c0c0c0" stroke="#c0c0c0" stroke-width="2" points="85.0001,-118.4132 81.5,-108.4133 78.0001,-118.4133 85.0001,-118.4132"/>
</g>
<!-- 3 -->
<g id="node4" class="node">
<title>3</title>
<path fill="none" stroke="#78d856" stroke-width="2" stroke-dasharray="5,2" d="M60.5,-252C60.5,-252 20.5,-252 20.5,-252 14.5,-252 8.5,-246 8.5,-240 8.5,-240 8.5,-228 8.5,-228 8.5,-222 14.5,-216 20.5,-216 20.5,-216 60.5,-216 60.5,-216 66.5,-216 72.5,-222 72.5,-228 72.5,-228 72.5,-240 72.5,-240 72.5,-246 66.5,-252 60.5,-252"/>
<text text-anchor="middle" x="40.5" y="-231.5" font-family="sans" font-size="10.00" fill="#000000">compress</text>
</g>
<!-- 3&#45;&gt;2 -->
<g id="edge3" class="edge">
<title>3&#45;&gt;2</title>
<path fill="none" stroke="#c0c0c0" stroke-width="2" d="M50.846,-215.8314C55.4237,-207.7925 60.9052,-198.1666 65.9588,-189.2918"/>
<polygon fill="#c0c0c0" stroke="#c0c0c0" stroke-width="2" points="69.1077,-190.8351 71.0147,-180.4133 63.0248,-187.3712 69.1077,-190.8351"/>
</g>
<!-- 4 -->
<g id="node5" class="node">
<title>4</title>
<path fill="none" stroke="#78d856" stroke-width="2" stroke-dasharray="5,2" d="M142.5,-252C142.5,-252 102.5,-252 102.5,-252 96.5,-252 90.5,-246 90.5,-240 90.5,-240 90.5,-228 90.5,-228 90.5,-222 96.5,-216 102.5,-216 102.5,-216 142.5,-216 142.5,-216 148.5,-216 154.5,-222 154.5,-228 154.5,-228 154.5,-240 154.5,-240 154.5,-246 148.5,-252 142.5,-252"/>
<text text-anchor="middle" x="122.5" y="-231.5" font-family="sans" font-size="10.00" fill="#000000">compress</text>
</g>
<!-- 4&#45;&gt;2 -->
<g id="edge4" class="edge">
<title>4&#45;&gt;2</title>
<path fill="none" stroke="#c0c0c0" stroke-width="2" d="M112.154,-215.8314C107.5763,-207.7925 102.0948,-198.1666 97.0412,-189.2918"/>
<polygon fill="#c0c0c0" stroke="#c0c0c0" stroke-width="2" points="99.9752,-187.3712 91.9853,-180.4133 93.8923,-190.8351 99.9752,-187.3712"/>
</g>
<!-- 5 -->
<g id="node6" class="node">
<title>5</title>
<path fill="none" stroke="#c6d856" stroke-width="2" stroke-dasharray="5,2" d="M52.5,-324C52.5,-324 22.5,-324 22.5,-324 16.5,-324 10.5,-318 10.5,-312 10.5,-312 10.5,-300 10.5,-300 10.5,-294 16.5,-288 22.5,-288 22.5,-288 52.5,-288 52.5,-288 58.5,-288 64.5,-294 64.5,-300 64.5,-300 64.5,-312 64.5,-312 64.5,-318 58.5,-324 52.5,-324"/>
<text text-anchor="middle" x="37.5" y="-303.5" font-family="sans" font-size="10.00" fill="#000000">infer</text>
</g>
<!-- 5&#45;&gt;3 -->
<g id="edge5" class="edge">
<title>5&#45;&gt;3</title>
<path fill="none" stroke="#c0c0c0" stroke-width="2" d="M38.257,-287.8314C38.5779,-280.131 38.9594,-270.9743 39.316,-262.4166"/>
<polygon fill="#c0c0c0" stroke="#c0c0c0" stroke-width="2" points="42.8133,-262.5503 39.7328,-252.4133 35.8194,-262.2589 42.8133,-262.5503"/>
</g>
<!-- 6 -->
<g id="node7" class="node">
<title>6</title>
<path fill="none" stroke="#c6d856" stroke-width="2" stroke-dasharray="5,2" d="M138.5,-324C138.5,-324 108.5,-324 108.5,-324 102.5,-324 96.5,-318 96.5,-312 96.5,-312 96.5,-300 96.5,-300 96.5,-294 102.5,-288 108.5,-288 108.5,-288 138.5,-288 138.5,-288 144.5,-288 150.5,-294 150.5,-300 150.5,-300 150.5,-312 150.5,-312 150.5,-318 144.5,-324 138.5,-324"/>
<text text-anchor="middle" x="123.5" y="-303.5" font-family="sans" font-size="10.00" fill="#000000">infer</text>
</g>
<!-- 6&#45;&gt;4 -->
<g id="edge6" class="edge">
<title>6&#45;&gt;4</title>
<path fill="none" stroke="#c0c0c0" stroke-width="2" d="M123.2477,-287.8314C123.1407,-280.131 123.0135,-270.9743 122.8947,-262.4166"/>
<polygon fill="#c0c0c0" stroke="#c0c0c0" stroke-width="2" points="126.3944,-262.3637 122.7557,-252.4133 119.3951,-262.4609 126.3944,-262.3637"/>
</g>
<!-- 7 -->
<g id="node8" class="node">
<title>7</title>
<path fill="none" stroke="#d85656" stroke-width="2" stroke-dasharray="5,2" d="M59,-396C59,-396 12,-396 12,-396 6,-396 0,-390 0,-384 0,-384 0,-372 0,-372 0,-366 6,-360 12,-360 12,-360 59,-360 59,-360 65,-360 71,-366 71,-372 71,-372 71,-384 71,-384 71,-390 65,-396 59,-396"/>
<text text-anchor="middle" x="35.5" y="-381" font-family="sans" font-size="10.00" fill="#000000">quasimap</text>
<text text-anchor="middle" x="35.5" y="-370" font-family="sans" font-size="10.00" fill="#000000">sample: S0</text>
</g>
<!-- 7&#45;&gt;5 -->
<g id="edge7" class="edge">
<title>7&#45;&gt;5</title>
<path fill="none" stroke="#c0c0c0" stroke-width="2" d="M36.0047,-359.8314C36.2186,-352.131 36.4729,-342.9743 36.7106,-334.4166"/>
<polygon fill="#c0c0c0" stroke="#c0c0c0" stroke-width="2" points="40.2094,-334.5066 36.9885,-324.4133 33.2121,-334.3122 40.2094,-334.5066"/>
</g>
<!-- 8 -->
<g id="node9" class="node">
<title>8</title>
<path fill="none" stroke="#d85656" stroke-width="2" stroke-dasharray="5,2" d="M148,-396C148,-396 101,-396 101,-396 95,-396 89,-390 89,-384 89,-384 89,-372 89,-372 89,-366 95,-360 101,-360 101,-360 148,-360 148,-360 154,-360 160,-366 160,-372 160,-372 160,-384 160,-384 160,-390 154,-396 148,-396"/>
<text text-anchor="middle" x="124.5" y="-381" font-family="sans" font-size="10.00" fill="#000000">quasimap</text>
<text text-anchor="middle" x="124.5" y="-370" font-family="sans" font-size="10.00" fill="#000000">sample: S1</text>
</g>
<!-- 8&#45;&gt;6 -->
<g id="edge8" class="edge">
<title>8&#45;&gt;6</title>
<path fill="none" stroke="#c0c0c0" stroke-width="2" d="M124.2477,-359.8314C124.1407,-352.131 124.0135,-342.9743 123.8947,-334.4166"/>
<polygon fill="#c0c0c0" stroke="#c0c0c0" stroke-width="2" points="127.3944,-334.3637 123.7557,-324.4133 120.3951,-334.4609 127.3944,-334.3637"/>
</g>
<!-- 9 -->
<g id="node10" class="node">
<title>9</title>
<path fill="none" stroke="#d8a456" stroke-width="2" stroke-dasharray="5,2" d="M100.5,-468C100.5,-468 58.5,-468 58.5,-468 52.5,-468 46.5,-462 46.5,-456 46.5,-456 46.5,-444 46.5,-444 46.5,-438 52.5,-432 58.5,-432 58.5,-432 100.5,-432 100.5,-432 106.5,-432 112.5,-438 112.5,-444 112.5,-444 112.5,-456 112.5,-456 112.5,-462 106.5,-468 100.5,-468"/>
<text text-anchor="middle" x="79.5" y="-453" font-family="sans" font-size="10.00" fill="#000000">build</text>
<text text-anchor="middle" x="79.5" y="-442" font-family="sans" font-size="10.00" fill="#000000">data: data</text>
</g>
<!-- 9&#45;&gt;7 -->
<g id="edge9" class="edge">
<title>9&#45;&gt;7</title>
<path fill="none" stroke="#c0c0c0" stroke-width="2" d="M68.3969,-431.8314C63.4326,-423.7079 57.4778,-413.9637 52.0072,-405.0118"/>
<polygon fill="#c0c0c0" stroke="#c0c0c0" stroke-width="2" points="54.9536,-403.121 46.7526,-396.4133 48.9806,-406.7712 54.9536,-403.121"/>
</g>
<!-- 9&#45;&gt;8 -->
<g id="edge10" class="edge">
<title>9&#45;&gt;8</title>
<path fill="none" stroke="#c0c0c0" stroke-width="2" d="M90.8554,-431.8314C95.9326,-423.7079 102.0227,-413.9637 107.6176,-405.0118"/>
<polygon fill="#c0c0c0" stroke="#c0c0c0" stroke-width="2" points="110.6597,-406.7483 112.9917,-396.4133 104.7237,-403.0383 110.6597,-406.7483"/>
</g>
</g>
</svg>
